#!OML:ASF H:\Terrain\Patient Classification 1\Walking\liu\liu.ASF
:FULLY-SPECIFIED
:DEGREES
469
root 10.879000 17.396500 29.489799 3.963020 4.259900 2.837250
lowerback -2.515610 -1.996845 -1.993790
upperback 0.167088 -2.574915 0.949715
thorax 1.845745 -1.329830 1.878400
lowerneck -11.333950 -1.420620 -5.066300
upperneck 12.188750 -1.648405 5.040000
head 6.070550 -0.553180 2.496655
rclavicle -0.000000 -0.000000
rhumerus -22.687401 5.267150 -43.262699
rradius 19.398100
rwrist -9.931500
rhand -12.575700 -20.271000
rfingers 3.562510
rthumb 0.682660 -35.258701
lclavicle -0.000000 -0.000000
lhumerus -6.058750 -9.836750 42.446850
lradius 13.628050
lwrist 2.548945
lhand -7.361600 -12.344850
lfingers 3.562510
lthumb 5.715850 2.489325
rfemur -16.450150 0.517800 8.021750
rtibia 24.859350
rfoot -9.846000 -5.133700
rtoes -7.780650
lfemur -4.036775 1.256825 -14.228000
ltibia 11.410100
lfoot -8.746550 1.881625
ltoes 1.811400
470
root 10.887000 17.375700 29.619801 4.002940 4.359340 3.099480
lowerback -2.204870 -2.020805 -2.019150
upperback -0.146276 -2.616225 0.900920
thorax 1.348035 -1.335305 1.873350
lowerneck -11.046850 -1.419445 -5.065450
upperneck 12.433700 -1.664695 4.944235
head 6.109300 -0.581610 2.463855
rclavicle -0.000000 -0.000000
rhumerus -23.351400 5.199150 -43.292400
rradius 19.459551
rwrist -9.885150
rhand -12.768900 -19.752150
rfingers 3.562510
rthumb 0.496080 -34.740898
lclavicle -0.000000 -0.000000
lhumerus -6.389600 -9.893350 42.534050
lradius 13.859000
lwrist 2.624820
lhand -7.457050 -12.423700
lfingers 3.562510
lthumb 5.623800 2.415535
rfemur -16.649300 0.466978 7.847600
rtibia 24.135000
rfoot -9.840450 -4.988770
rtoes -7.631500
lfemur -3.570620 1.258880 -14.359800
ltibia 11.003000
lfoot -8.860500 1.795960
ltoes 1.783330
471
root 10.890800 17.374001 29.747999 3.997930 4.515110 2.646830
lowerback -2.708985 -1.980245 -1.683480
upperback 0.235304 -2.563610 0.893215
thorax 1.990940 -1.320195 1.632305
lowerneck -11.379000 -1.536770 -5.094700
upperneck 12.292250 -1.802480 5.024100
head 6.140050 -0.626715 2.474165
rclavicle -0.000000 -0.000000
rhumerus -22.881901 4.767930 -43.093700
rradius 19.468700
rwrist -9.676750
rhand -13.228800 -18.103750
rfingers 3.562510
rthumb 0.051900 -33.093601
lclavicle -0.000000 -0.000000
lhumerus -5.508300 -10.337100 42.230251
lradius 14.022150
lwrist 2.943225
lhand -7.616050 -12.385450
lfingers 3.562510
lthumb 5.470450 2.462040
rfemur -16.867950 0.502240 8.086850
rtibia 23.406000
rfoot -9.715050 -5.100600
rtoes -8.839800
lfemur -3.100255 1.282335 -14.081450
ltibia 10.540150
lfoot -8.876800 1.702595
ltoes 1.434905
472
root 10.893000 17.385799 29.868299 4.040920 4.571840 2.765800
lowerback -3.124875 -2.015205 -1.753940
upperback 0.595780 -2.592080 0.867570
thorax 2.608935 -1.349805 1.598485
lowerneck -11.672050 -1.571665 -5.205500
upperneck 12.052150 -1.839400 5.278650
head 6.117050 -0.611845 2.580150
rclavicle 0.000000 -0.000000
rhumerus -22.380751 4.523000 -42.904999
rradius 19.526501
rwrist -9.483550
rhand -14.034500 -14.891250
rfingers 3.562510
rthumb -0.726280 -29.878651
lclavicle 0.000000 -0.000000
lhumerus -4.624960 -10.483650 41.897099
lradius 14.122100
lwrist 3.237285
lhand -7.738900 -12.404000
lfingers 3.562510
lthumb 5.351900 2.449660
rfemur -17.172701 0.708555 7.934750
rtibia 22.656099
rfoot -9.674950 -5.168650
rtoes -9.333050
lfemur -2.669240 1.342500 -14.113650
ltibia 10.136750
lfoot -8.852550 1.672445
ltoes 1.751180
473
root 10.899300 17.383101 29.992001 3.935690 4.510280 3.240170
lowerback -3.395555 -2.064360 -2.012890
upperback 0.931475 -2.623350 0.803335
thorax 3.138165 -1.385730 1.639240
lowerneck -11.919050 -1.576910 -5.173650
upperneck 11.789200 -1.827835 5.324850
head 6.062050 -0.589735 2.585580
rclavicle 0.000000 -0.000000
rhumerus -21.924200 4.460570 -42.824551
rradius 19.556000
rwrist -9.700350
rhand -13.580050 -16.138849
rfingers 3.562510
rthumb -0.287337 -31.128349
lclavicle 0.000000 -0.000000
lhumerus -3.810945 -10.450900 41.566349
lradius 14.218300
lwrist 3.498585
lhand -7.711500 -12.441300
lfingers 3.562510
lthumb 5.378400 2.410990
rfemur -17.336300 0.934050 7.568150
rtibia 21.869150
rfoot -9.810450 -4.984895
rtoes -8.722950
lfemur -2.094160 1.358430 -14.358500
ltibia 9.691050
lfoot -8.888050 1.727330
ltoes 1.761520
474
root 10.904900 17.375200 30.113400 3.923110 4.437870 3.258730
lowerback -3.142160 -2.055950 -1.981155
upperback 0.740815 -2.625190 0.818145
thorax 2.790930 -1.377660 1.662120
lowerneck -11.669050 -1.532720 -5.085250
upperneck 11.857000 -1.774060 5.139350
head 6.026300 -0.587910 2.506615
rclavicle 0.000000 -0.000000
rhumerus -22.389351 4.599050 -42.918701
rradius 19.556200
rwrist -10.115450
rhand -15.494350 -14.805250
rfingers 3.562510
rthumb -2.136110 -29.773701
lclavicle 0.000000 -0.000000
lhumerus -3.980040 -10.440900 41.650600
lradius 14.444350
lwrist 3.510155
lhand -7.689050 -12.469900
lfingers 3.562510
lthumb 5.400050 2.381285
rfemur -17.536501 1.229260 7.442600
rtibia 21.070000
rfoot -9.921050 -4.808395
rtoes -8.161600
lfemur -1.555410 1.233040 -14.368000
ltibia 9.132600
lfoot -8.855550 1.870165
ltoes 1.467365
475
root 10.908200 17.381599 30.242800 3.966230 4.509890 3.038800
lowerback -2.539345 -2.104305 -1.823680
upperback 0.198419 -2.725055 0.877920
thorax 1.883010 -1.401245 1.691655
lowerneck -11.257000 -1.387760 -4.968440
upperneck 12.317200 -1.626860 4.947240
head 6.099000 -0.549180 2.451590
rclavicle 0.000000 -0.000000
rhumerus -23.447451 4.848810 -43.121300
rradius 19.550100
rwrist -10.307950
rhand -14.977950 -15.021700
rfingers 3.562510
rthumb -1.637420 -29.999001
lclavicle 0.000000 -0.000000
lhumerus -4.862190 -10.364100 41.959850
lradius 14.704950
lwrist 3.450265
lhand -7.872400 -12.604250
lfingers 3.562510
lthumb 5.223150 2.255975
rfemur -17.750799 1.428515 7.470150
rtibia 20.267401
rfoot -9.870950 -4.774625
rtoes -8.262450
lfemur -1.056310 1.089415 -14.234100
ltibia 8.589050
lfoot -8.758450 1.956825
ltoes 2.403195
476
root 10.912000 17.385099 30.380501 3.951370 4.549080 3.195680
lowerback -2.105860 -2.198365 -1.891325
upperback -0.166245 -2.862525 0.887905
thorax 1.282095 -1.455010 1.776900
lowerneck -11.026850 -1.235445 -4.787095
upperneck 12.647400 -1.458595 4.743920
head 6.154750 -0.491053 2.380235
rclavicle 0.000000 0.000000
rhumerus -24.184349 5.035350 -43.240551
rradius 19.621500
rwrist -10.318050
rhand -15.200100 -13.729950
rfingers 3.562510
rthumb -1.851980 -28.703699
lclavicle 0.000000 0.000000
lhumerus -5.444700 -10.236150 42.117748
lradius 14.891350
lwrist 3.524335
lhand -8.017250 -12.723150
lfingers 3.562510
lthumb 5.083450 2.144035
rfemur -17.928249 1.472080 7.346300
rtibia 19.489950
rfoot -9.811650 -4.615355
rtoes -8.608550
lfemur -0.517625 1.080630 -14.296100
ltibia 8.111500
lfoot -8.732400 1.927830
ltoes 3.296850
